<?xml version="1.0" encoding="UTF-8" standalone="no"?>
<svg xmlns="http://www.w3.org/2000/svg" xmlns:xlink="http://www.w3.org/1999/xlink" width="48" height="48" version="1.0">
  <defs>
    <linearGradient id="f">
      <stop offset="0" stop-color="#ffe02f"/>
      <stop offset="1" stop-color="#ffff87"/>
    </linearGradient>
    <linearGradient id="a">
      <stop offset="0" stop-color="#987800"/>
      <stop offset="1" stop-color="#ffd32d"/>
    </linearGradient>
    <linearGradient id="c">
      <stop offset="0" stop-color="#987800"/>
      <stop offset="1" stop-color="#987800" stop-opacity="0"/>
    </linearGradient>
    <linearGradient id="e">
      <stop offset="0" stop-color="#987800"/>
      <stop offset="1" stop-color="#987800" stop-opacity="0"/>
    </linearGradient>
    <linearGradient id="d">
      <stop offset="0" stop-color="#987800"/>
      <stop offset="1" stop-color="#987800" stop-opacity="0"/>
    </linearGradient>
    <linearGradient id="b">
      <stop offset="0" stop-color="#c2a000"/>
      <stop offset=".81999999" stop-color="#ffd301"/>
      <stop offset="1" stop-color="#ffd301"/>
    </linearGradient>
    <linearGradient xlink:href="#a" id="j" x1="16.354828" x2="-9.6884918" y1="30.898478" y2="28.802641" gradientUnits="userSpaceOnUse"/>
    <linearGradient xlink:href="#b" id="k" x1="36.701866" x2="47.125637" y1="9.331069" y2="19.354839" gradientUnits="userSpaceOnUse" spreadMethod="reflect"/>
    <linearGradient xlink:href="#a" id="l" x1="36.701866" x2="47.125637" y1="9.331069" y2="20.414261" gradientUnits="userSpaceOnUse" spreadMethod="reflect"/>
    <linearGradient xlink:href="#b" id="m" x1="38.065193" x2="40.502544" y1="18.906622" y2="18.90662" gradientUnits="userSpaceOnUse" spreadMethod="reflect"/>
    <linearGradient xlink:href="#c" id="n" x1="38.065193" x2="42.939896" y1="18.906622" y2="18.906622" gradientUnits="userSpaceOnUse"/>
    <linearGradient xlink:href="#b" id="o" x1="44.688286" x2="47.125637" y1="18.906622" y2="18.90662" gradientUnits="userSpaceOnUse" spreadMethod="reflect"/>
    <linearGradient xlink:href="#d" id="p" x1="44.688286" x2="49.562988" y1="18.906622" y2="18.906622" gradientUnits="userSpaceOnUse"/>
    <linearGradient xlink:href="#b" id="q" x1="51.311375" x2="53.748726" y1="18.906622" y2="18.90662" gradientUnits="userSpaceOnUse" spreadMethod="reflect"/>
    <linearGradient xlink:href="#e" id="r" x1="51.311375" x2="56.186077" y1="18.906622" y2="18.906622" gradientUnits="userSpaceOnUse"/>
    <linearGradient xlink:href="#a" id="t" x1="21.27742" x2="36.82954" y1="17.602716" y2="12.801226" gradientTransform="matrix(1 0 0 -1 -18 35.21875)" gradientUnits="userSpaceOnUse"/>
    <linearGradient xlink:href="#f" id="s" x1="9.7162352" x2="18.829542" y1="17.609375" y2="22.417524" gradientUnits="userSpaceOnUse"/>
    <linearGradient id="g">
      <stop offset="0" stop-color="#3f3f3f"/>
      <stop offset="1" stop-color="#fff"/>
    </linearGradient>
    <linearGradient xlink:href="#g" id="h" x1="40.605217" x2="17.594276" y1="12.89941" y2="36.913795" gradientTransform="matrix(.96376 0 0 .7931 -1.7786882 -2.5602451)" gradientUnits="userSpaceOnUse"/>
    <filter id="w" width="1.2320648" height="1.2264745" x="-.1160324" y="-.11323723">
      <feGaussianBlur stdDeviation=".35847424"/>
    </filter>
    <filter id="v" width="1.2553269" height="1.2177345" x="-.12766343" y="-.10886724">
      <feGaussianBlur stdDeviation=".35847424"/>
    </filter>
    <filter id="u">
      <feGaussianBlur stdDeviation=".35847424"/>
    </filter>
  </defs>
  <g stroke="#5d5d5d" stroke-width=".83957833" transform="matrix(1.18908 0 0 1.19308 .5559069 15.10052)">
    <path id="i" fill="url(#h)" fill-opacity="1" fill-rule="evenodd" stroke="#5d5d5d" stroke-dasharray="none" stroke-linecap="butt" stroke-linejoin="miter" stroke-miterlimit="4" stroke-opacity="1" stroke-width=".44474855" d="M24.424881 26.020489c2.009508-.708782 2.625288-2.926039 3.531618-4.751657 1.062023-1.113794 1.980231 1.454865 4.051545 1.217263 1.426334-.162405 3.694776-2.570638 2.811061-4.138277-1.942138-1.699218-3.325246.49569-4.531188-.918009-.184112-1.52294 4.010533-2.621164 3.027396-3.732523-1.793631-1.332624-5.134544-.985102-8.344029-2.221525-1.432182-1.6181823 3.236193-.944258 2.208715-2.5244612-.420789-.634509-3.213765-2.1796995-6.380729-1.5146766-2.033822.6749494.355857 2.7382808-2.822245 2.5244609-2.173237-.2703938-5.866553-1.6872865-7.975909-1.009785C8.3668072 10.069742 7.5582415 11.631424 7.4242843 12.18261c-.332092 1.706123 3.6074277.561742 4.1809617 1.006103 1.697299 1.399125-1.9271108 3.13369-2.9516624 2.54471-.4099508-.82499-1.402807-1.254576-2.7666661-.96445-1.3844367.08577-3.7092857 4.209632-3.0161875 5.293639 1.1617336 1.353652 7.451904 3.066425 9.008341 2.87229 2.036634.052363.918158-.840179 1.064435-1.984026.313539-1.455668 7.576276.610365 6.029579 1.59711-2.070609.382212-2.643022 1.091778-1.883419 1.819454 1.376821 1.167016 6.171138 2.205385 7.335215 1.653049z"/>
    <use xlink:href="#i" width="42.279999" height="42.279999" transform="translate(.07178268 -.3589134)"/>
  </g>
  <g stroke-linejoin="round" stroke-width=".80000001" transform="translate(22.329372 -9e-8)">
    <g transform="translate(-47.103565 -1.5483871)">
      <path fill="#ffff87" stroke="url(#j)" d="M16.4618 26.444822a12.876061 4.5229201 0 1 1-25.7521228 0 12.876061 4.5229201 0 1 1 25.7521228 0z" enable-background="accumulate" overflow="visible" style="marker:none" transform="matrix(.94181 0 0 .93321 43.667042 8.8109732)"/>
      <path fill="url(#k)" stroke="url(#l)" d="M36.449917 9.1273336h21.351442V31.701188c-.50863 3.356253-20.289642 3.0472-21.351442 0V9.1273336z" enable-background="accumulate" overflow="visible" style="marker:none"/>
      <path fill="url(#m)" stroke="url(#n)" d="M38.465195 9.1273336h4.074702V31.256367c-.651711.172203-2.121074.125282-4.074702-.570459V9.1273336z" enable-background="accumulate" overflow="visible" style="marker:none"/>
      <path fill="url(#o)" stroke="url(#p)" d="M45.088287 9.1273336h4.074703V31.826825c-1.358234.701554-2.716469.360956-4.074703 0V9.1273336z" enable-background="accumulate" overflow="visible" style="marker:none"/>
      <path fill="url(#q)" stroke="url(#r)" d="M51.711376 9.1273336h4.074703V30.685908c-1.482443.865527-2.80856.949422-4.074703.733447V9.1273336z" enable-background="accumulate" overflow="visible" style="marker:none"/>
    </g>
    <path fill="url(#s)" stroke="url(#t)" d="M10.6875 26.25c-.822001-1.049238-.69707-2.233752 0-3.5h3.46875c.968015 0 1.75-.781986 1.75-1.75v-6.78125c.000001-.968016-.781985-1.75-1.75-1.75H10.6875c-.927771-1.299205-.575498-2.415547 0-3.5h5.375c1.625318 0 2.9375 1.312183 2.9375 2.9375V23.3125c0 1.625317-1.31218 2.9375-2.9375 2.9375h-5.375z" enable-background="accumulate" overflow="visible" style="marker:none"/>
  </g>
  <path fill="#fff" stroke="#989060" stroke-linecap="round" stroke-width=".5" d="M32.935447 11.850357c.918091 1.459703 1.537832 3.247497.498112 4.57329s-3.665879.292169-4.315464 1.798359c-.649585 1.50619-3.099534 1.217025-3.02912-.319436.070416-1.53646.083124-3.608809-1.165367-4.417889-1.24849-.80908-2.48415-2.187007-2.352593-2.820926.131556-.633918-2.163943 1.601003-3.355634 1.052794-1.191692-.548209-2.645815.131666-3.324977 1.227579-.679162 1.095913-.018073 2.716359-.835424 3.868762-.817351 1.152403-2.067508 2.398661-3.469654.762294-1.402146-1.636367-2.68959-4.904767-3.0565244-7.531338-.3669333-2.6265707.6291674-5.7134368 2.8210614-7.1454166 2.191894-1.4319798 5.089845-2.0246451 7.461895-1.3264143 2.366428-.4183742 4.265879-1.0519428 6.375443-.7754904 2.109564.2764525 4.181219 1.0448163 6.472701 1.7945998 2.291482.7497835 4.687985 3.2637748 5.101705 5.2815229.103509 2.1422346-2.084347 3.2066916-3.82616 3.9777096z" filter="url(#u)"/>
  <path fill="#fff" stroke="#989060" stroke-linecap="round" stroke-width=".5" d="M24.369213 4.6124404c3.450664-.4244876 2.887152.2386124 3.91396.4379123 1.026807.1992999 1.575182 2.566302 1.920908 3.5286852.345726.9623831.91724 1.9588751 2.272295 2.8160721" filter="url(#v)"/>
  <path fill="#fff" stroke="#989060" stroke-linecap="round" stroke-width=".5" d="M11.898132 8.8828518c2.7034-3.392375 8.3853-.1771895 6.560053-7.0976614" filter="url(#w)"/>
</svg>